<svg version="1.1" id="Layer_1" xmlns="http://www.w3.org/2000/svg" xmlns:xlink="http://www.w3.org/1999/xlink" x="0px" y="0px"
	 viewBox="0 0 170 170" style="enable-background:new 0 0 170 170;" xml:space="preserve">
<style type="text/css">
	.st0{opacity:0.79;fill:#666666;}
</style>
	<path class="st0" d="M-1.3,0v170h171.4V0H-1.3z M115.3,117.7c-2.9,2.9-7.5,2.9-10.6-0.1c-5-4.9-10-9.9-14.9-14.9
	c-1.5-1.5-3.1-2.1-5.2-1.8c-4.6,0.7-8.8-0.1-12.7-2.7c-5.4-3.5-8.5-10.9-7.2-17.1c0.1-0.3,0.3-0.6,0.4-0.9c0.3,0.2,0.7,0.3,0.9,0.5
	c2.4,2.4,4.8,4.8,7.2,7.2c0.2,0.2,0.4,0.4,0.7,0.7c1.8,1.7,2.2,1.8,4.4,0.6c3.9-2.2,6.9-5.3,8.9-9.3c0.6-1.2,0.5-2-0.5-3
	c-2.8-2.8-5.6-5.6-8.4-8.4c-0.3-0.3-0.5-0.6-0.7-0.9c0-0.1,0.1-0.2,0.1-0.3c0.8-0.1,1.6-0.3,2.4-0.4c7.7-0.6,14.7,3.7,17.5,10.9
	c1.2,3,1.4,6.1,0.9,9.2c-0.3,2,0.3,3.7,1.7,5.1c4.9,4.9,9.9,9.8,14.8,14.8C118.2,110,118.3,114.7,115.3,117.7z M112.6,85.4
	c-0.1,1.1,0.3,1.9,1.3,2.4c1.2,0.6,2.3,1.3,3.5,1.9c0.9,0.5,1.3,1.1,1,2.1c-0.3,1.3-0.7,2.6-1.1,3.8c-0.2,0.8-0.8,1.1-1.6,1.1
	c-1.3,0-2.7,0-4,0c-0.3,0-0.6-0.1-0.9,0c-1,0.6-1.6-0.1-2.2-0.8c-1.2-1.2-2.4-2.5-3.7-3.7c-0.4-0.4-0.6-0.8-0.4-1.4
	c2.2-7.8,1-15.1-3.9-21.5C96,63,89.4,59.8,83.3,59.7c-12.3,0-21.6,6.7-24.8,16.7c-3.9,12,2,25,13.7,29.9c5.3,2.2,10.8,2.4,16.3,0.8
	c0.6-0.2,1,0,1.4,0.4c1.4,1.4,2.8,2.9,4.3,4.3c0.4,0.4,0.4,0.7,0.3,1.2c-0.2,0.7-0.1,1.4-0.1,2.1c0,1,0,2.1,0,3.1
	c0,0.8-0.3,1.3-1.1,1.5c-1.3,0.4-2.6,0.7-3.9,1.1c-0.9,0.2-1.6-0.2-2-1c-0.7-1.2-1.4-2.4-2-3.6c-0.5-0.9-1.2-1.2-2.1-1.2
	c-1.1,0-2.3,0.1-3.4,0c-1.1-0.1-1.8,0.3-2.3,1.3c-0.6,1.2-1.3,2.4-2,3.6c-0.4,0.8-1.1,1.2-2,1c-1.3-0.3-2.5-0.6-3.8-1
	c-0.9-0.2-1.2-0.8-1.2-1.7c0-1.4,0-2.9,0-4.3c0-1-0.4-1.6-1.2-2c-1.1-0.6-2.1-1.2-3.1-1.8c-0.8-0.5-1.5-0.5-2.3,0
	c-1.2,0.8-2.5,1.5-3.7,2.2c-0.8,0.5-1.5,0.4-2.1-0.2c-1-0.9-1.9-1.8-2.8-2.8c-0.7-0.7-0.5-1.5,0-2.3c0.7-1.2,1.4-2.3,2.1-3.5
	c0.5-0.8,0.5-1.5-0.1-2.3c-0.6-1-1.2-2-1.8-3.1c-0.4-0.9-1.1-1.3-2.1-1.3c-1.4,0-2.9,0-4.3,0c-0.9,0-1.4-0.3-1.7-1.2
	c-0.3-1.2-0.7-2.4-1-3.7c-0.2-1,0.1-1.6,1-2.1c1.2-0.7,2.4-1.4,3.6-2c0.9-0.5,1.2-1.1,1.2-2.1c0-1.2,0-2.4,0-3.5
	c0-0.9-0.3-1.6-1.2-2c-1.3-0.7-2.5-1.4-3.8-2.1c-0.8-0.4-1.1-1.1-0.9-2c0.3-1.3,0.7-2.6,1.1-3.8c0.2-0.8,0.8-1.1,1.6-1.1
	c1.5,0,2.9,0,4.4,0c1,0,1.6-0.4,2.1-1.3c0.6-1.1,1.2-2.1,1.8-3.1c0.5-0.7,0.5-1.4,0-2.2c-0.7-1.2-1.4-2.4-2.1-3.5
	c-0.6-1-0.6-1.6,0.2-2.5c0.8-0.8,1.6-1.7,2.4-2.4c0.9-0.8,1.5-0.9,2.5-0.2c1.2,0.7,2.4,1.4,3.6,2.1c0.8,0.5,1.5,0.4,2.3-0.1
	c1-0.7,2.1-1.2,3.1-1.8c0.8-0.4,1.2-1,1.2-2c0-1.4,0-2.8,0-4.2c0-1.2,0.2-1.5,1.3-1.9c1.2-0.4,2.4-0.7,3.6-1c0.9-0.2,1.6,0.1,2,0.9
	c0.7,1.2,1.4,2.4,2,3.6c0.5,0.9,1.2,1.3,2.2,1.2c1.2-0.1,2.4,0,3.5,0c0.9,0,1.6-0.4,2-1.2c0.6-1.2,1.3-2.4,2-3.6
	c0.5-0.9,1.1-1.2,2.1-1c1.2,0.3,2.4,0.7,3.7,1c0.9,0.2,1.2,0.8,1.2,1.7c0,1.4,0,2.7-0.1,4.1c0,1.1,0.4,1.8,1.4,2.3
	c1,0.5,2,1.1,3,1.7c0.8,0.5,1.5,0.6,2.3,0.1c1.2-0.7,2.3-1.4,3.5-2.1c1-0.6,1.7-0.6,2.6,0.2c0.9,0.8,1.7,1.6,2.5,2.5
	c0.7,0.8,0.8,1.4,0.2,2.4c-0.7,1.2-1.4,2.4-2.2,3.6c-0.5,0.7-0.4,1.4,0,2.2c0.6,1.1,1.3,2.1,1.8,3.2c0.4,0.8,1,1.2,1.9,1.2
	c1.4,0,2.8,0,4.2-0.1c1.2,0,1.5,0.2,1.9,1.4c0.4,1.2,0.7,2.3,0.9,3.5c0.2,1.1,0,1.6-1,2.1c-1.2,0.7-2.3,1.3-3.5,1.9
	c-1,0.5-1.4,1.3-1.3,2.4C112.7,83.4,112.7,84.4,112.6,85.4z"/>
</svg>
