<svg version="1.1" id="Layer_1" xmlns="http://www.w3.org/2000/svg" xmlns:xlink="http://www.w3.org/1999/xlink" x="0px" y="0px"
	 viewBox="0 0 170 170" style="enable-background:new 0 0 170 170;" xml:space="preserve">
<style type="text/css">
	.st0{opacity:0.79;fill:#666666;enable-background:new    ;}
</style>
	<g>
	<path class="st0" d="M74.1,61.7c0.7,3.8,1.3,7.5,2.2,11.1c0.6,2.8,1.6,5.5,3.4,7.7c1.9,2.3,4.3,3.1,7.2,2.6
		c3.2-0.6,4.9-2.8,6.1-5.6c2.1-5,2.6-10.4,3.4-15.8C88.9,61.2,81.6,61.2,74.1,61.7z M85.3,80.5c-3.2,0-5.7-2.5-5.7-5.6
		c0-3.1,2.5-5.6,5.6-5.7c3.1,0,5.7,2.5,5.7,5.7C90.9,77.9,88.4,80.4,85.3,80.5z"/>
		<path class="st0" d="M-1.3,0v170h171.4V0H-1.3z M53.4,73.1C52.2,67.1,51.1,61,50,54.9c-0.4-2.1,1.1-4,3.2-4.5
		c1.2-0.3,2.5-0.5,3.7-0.7c2.2-0.4,4.2,0.9,4.7,3.1c1.2,6.1,2.3,12.2,3.5,18.2c0.3,1.8-0.8,3.6-2.5,4.2c-0.3,0.1-0.7,0.2-1.1,0.3
		c-1.3,0.3-2.7,0.5-3.6,0.7C55.4,76.3,53.8,75.1,53.4,73.1z M106.3,98.6c-0.7,4.8-1.5,9.6-2.3,14.4c-0.3,1.7-0.5,3.3-1,4.9
		c-0.2,0.7-0.9,1.5-1.6,1.9c-1.8,0.9-3.5-0.1-3.6-2.2c-0.1-2,0.1-4,0.3-5.9c0.3-3.2,0.6-6.5,0.9-9.8c-2.4-0.5-4.8-0.9-7.2-1.4
		c-1.3-0.2-2.6-0.4-3.8-0.7c-1-0.3-1.7,0.1-2.4,0.7c-7.6,6.2-15.2,12.4-22.8,18.5c-0.5,0.4-1.1,0.8-1.8,1c-1.2,0.3-2.4-0.2-2.9-1.2
		c-0.6-1.2-0.4-2.5,0.6-3.5c4.8-4.8,9.6-9.6,14.3-14.4c1.8-1.8,3.5-3.6,5.3-5.4c0.4-0.4,0.5-0.8,0.4-1.3c-0.6-2.1-1-4.2-1.5-6.3
		c-0.1-0.4-0.3-0.9-0.6-1.2c-3.5-4-4.9-8.8-5.7-13.8c-0.5-3.3-0.7-6.6-1.1-9.9c0-0.3-0.1-0.5-0.1-0.9c-1,0.1-1.8,0.2-2.7,0.3
		c-0.6,0.1-0.8-0.1-0.9-0.7c-0.1-0.6-0.2-1.3-0.4-2c1.3-0.2,2.5-0.3,3.9-0.5c0.1-1.3,0.4-2.5,2.1-2.5c1.1,0,1.6,0.4,2.1,2
		c7.6,0,15.2,0,22.7,0c0.4-0.6,0.8-1.3,1.3-1.9c0.2-0.3,0.8-0.3,1.3-0.2c1.2,0.1,1.7,0.7,2,2.6c1.2,0.2,2.4,0.3,3.7,0.5
		c-0.2,0.9-0.3,1.8-0.5,2.7c-1.1-0.1-2.2-0.2-3.4-0.3c-0.2,1.7-0.4,3.3-0.6,5c-0.8,6.4-2.2,12.5-5.3,18.2c-0.2,0.5-0.3,1-0.4,1.6
		c-0.3,1.6-0.5,3.3-0.8,5c2.8,1.1,5.7,2.1,8.5,3.1c0.8,0.3,1.7,0.6,2.5,1C106.1,96.5,106.5,97.2,106.3,98.6z M120.5,55
		c-1.1,6-2.2,12-3.4,18c-0.4,2.1-2.1,3.3-4.7,3.3c-1.1-0.2-2.7-0.4-4.3-0.8c-1.9-0.5-3-2.5-2.7-4.4c1.1-6,2.2-12.1,3.4-18.1
		c0.4-2.1,2.2-3.4,4.4-3.2c1.5,0.1,2.9,0.4,4.3,0.8C119.6,51,120.9,53,120.5,55z"/>
</g>
</svg>


