<?xml version="1.0" encoding="utf-8"?>
<!-- Generator: Adobe Illustrator 25.0.0, SVG Export Plug-In . SVG Version: 6.00 Build 0)  -->
<svg version="1.1" id="Layer_1" xmlns="http://www.w3.org/2000/svg" xmlns:xlink="http://www.w3.org/1999/xlink" x="0px" y="0px"
	 viewBox="0 0 170.1 170.1" style="enable-background:new 0 0 170.1 170.1;" xml:space="preserve">
<style type="text/css">
	.st0{opacity:0.79;fill:#666666;}
</style>
<path class="st0" d="M-0.2,0v170h170V0H-0.2z M85.1,59.2c11.6,0,21,3,21,6.6c0,3.6-9.4,6.6-21,6.6s-21-3-21-6.6
	C64.1,62.2,73.5,59.2,85.1,59.2z M106.2,103.4c0,3.6-9.4,6.6-21,6.6s-21-3-21-6.6c0-2.2,0-8.2,0-8.2s5.6,5.3,21.1,5.1
	c16.3-0.1,20.8-4.6,20.9-4.6C106.3,95.8,106.2,101.1,106.2,103.4z M106.2,91.1c0,3.6-9.4,6.6-21,6.6s-21-3-21-6.6c0-2.2,0-8.2,0-8.2
	s5.6,5.3,21.1,5.1c16.3-0.1,20.8-4.6,20.9-4.6C106.3,83.4,106.2,88.7,106.2,91.1z M106.2,78.6c0,3.6-9.4,6.6-21,6.6s-21-3-21-6.6
	c0-2.2,0-8.2,0-8.2s5.6,5.3,21.1,5.1c16.3-0.1,20.8-4.6,20.9-4.6C106.3,71,106.2,76.3,106.2,78.6z"/>
</svg>
