<?xml version="1.0" encoding="utf-8"?>
<!-- Generator: Adobe Illustrator 24.2.1, SVG Export Plug-In . SVG Version: 6.00 Build 0)  -->
<svg version="1.1" id="Layer_1" xmlns="http://www.w3.org/2000/svg" xmlns:xlink="http://www.w3.org/1999/xlink" x="0px"
     y="0px"
     viewBox="0 0 390 388" xml:space="preserve">
<style type="text/css">
	.st0{fill:#FFFFFF;}
</style>
    <path d="M199.5,381.9c-3.7,0-7.4,0-11,0c-0.3-0.1-0.6-0.1-0.9-0.2c-4.7-0.3-9.4-0.6-14.1-1c-13.8-1.4-27.2-4.3-40.3-8.9
	C93.4,358,61.7,333.6,38,298.9c-12.6-18.4-21.4-38.6-26.7-60.3C9.4,230.8,8,223,7.1,215.1c-0.6-5.4-0.7-10.8-1.1-16.2
	c0-0.7-0.1-1.4-0.2-2.1c0-1.8,0-3.7,0-5.5c0.1-0.4,0.2-0.8,0.2-1.1c0.1-8.2,0.8-16.4,2.1-24.5c1.6-10.4,4-20.5,7.3-30.5
	C27,100.4,47,71.5,75.2,48.3c17.5-14.4,37.1-25.2,58.6-32.4c14.3-4.8,28.9-7.8,43.9-9.1c8.1-0.7,16.3-0.9,24.4-0.5
	c7.3,0.3,14.6,1.1,21.8,2.2c11,1.7,21.8,4.4,32.3,8.1c34,12,62.3,32.1,84.8,60.2c17.8,22.2,29.9,47.2,36.3,75
	c4.4,19.5,5.7,39.2,4,59c-1.1,12.6-3.4,24.9-7,37c-11.2,36.9-31.8,67.6-61.6,92c-21.4,17.5-45.5,29.6-72.3,36.3
	c-11.1,2.8-22.5,4.6-33.9,5.3C204.1,381.6,201.8,381.7,199.5,381.9z M166,267.4c-0.1-0.1-0.2-0.2-0.4-0.4c0.4-0.7,0.8-1.5,1.3-2.1
	c2.6-2.8,5.6-5.1,8.8-7.3c0.8-0.6,1.7-1,2.5-1.5c0.6-0.4,0.5-0.9-0.3-1c-2.9-0.8-5.7-1.6-8.6-2.3c-3.3-0.8-6.6-1.6-9.9-2.4
	c-2.4-0.5-4.8-0.9-7.2-1.3c-1-0.1-2.2-0.2-3,0.1c-1.3,0.6-2.4,1.5-3.6,2.4c-1.2,0.9-2.4,1.9-3.6,2.8c-0.9,0.7-1.8,1.2-2.6,1.9
	c-1.4,1.1-2.7,2.3-4,3.5c-2.7,2.4-5.4,4.8-7.9,7.4c-2.3,2.4-4.5,5.1-6.3,7.9c-1.5,2.2-2.4,4.8-3.5,7.2c-0.5,1.3-0.8,2.6-1.2,3.9
	c-0.3,1-0.9,2-0.9,3c0,4,0.2,8,0.3,12.1c0,0.3-0.1,0.8-0.3,0.9c-0.2,0.1-0.7,0-0.9-0.2c-0.5-0.3-0.8-0.8-1.2-1.2
	c-2.3-2-4.7-3.9-6.5-6.4c-1-1.5-2.4-2.6-3.2-4.2c-1.8-3.4-3.5-6.9-4.1-10.9c-0.5-2.8-1.1-5.5-0.3-8.3c0.6-2,0.9-4.1,1.7-6
	c1.3-3.1,3.3-5.7,5.6-8.2c1.2-1.3,2.8-2.3,4.1-3.5c2.2-2,4.7-3.3,7.4-4.4c1.2-0.5,2.4-1,3.6-1.5c1.4-0.6,2.8-1.2,4.3-1.5
	c2-0.5,4.2-0.6,6.2-1.1c2.6-0.7,5.2-0.7,7.8-0.8c5.2-0.3,10.3,0.6,15.5,1.1c1.9,0.2,3.8,0.6,5.7,1c2.8,0.6,5.6,1.4,8.4,2.1
	c3.6,0.9,7.2,1.8,10.8,2.9c3.4,1,6.7,2.1,10,3.1c2.7,0.9,5.4,1.8,8.1,2.7c1.2,0.4,2.5,0.7,3.8,1.1c1.2,0.4,2.4,0.7,3.6,1.1
	c1.8,0.6,3.5,1.4,5.3,1.9c2.7,0.8,5.5,1.3,8.3,2.1c2.8,0.8,5.5,1.7,8.2,2.5c1.1,0.3,2.2,0.5,3.3,0.8c2.2,0.5,4.5,1.1,6.7,1.6
	c2.2,0.4,4.5,0.8,6.8,1.1c3.8,0.6,7.5,1.5,11.3,1.7c6,0.3,12.1,0.2,18.1,0.1c2.3,0,4.6-0.6,6.9-0.9c0.3,0,0.6-0.1,0.9-0.2
	c2.1-0.6,4.3-1.1,6.4-1.7c1.3-0.4,2.7-0.7,4-1.2c0.9-0.3,1.7-0.6,2.5-1.1c1-0.5,2-1.2,3-1.7c3-1.5,6-3,8.5-5.2
	c1.8-1.6,3.9-2.9,5.5-4.6c2.4-2.5,4.6-5.2,6.8-7.9c0.8-1,1.7-2,2.4-3.1c2.3-4,4.5-8.1,6.7-12.1c0.9-1.7,1.5-3.4,2.1-5.2
	c0.9-2.7,1.7-5.5,2.5-8.3c0.2-0.6,0.6-1.1,0.7-1.7c0.4-1.9,0.8-3.9,1.1-5.8c0.6-3.1,1.3-6.2,1.7-9.4c0.4-2.9,0.6-5.9,0.6-8.8
	c0-4.5-0.2-9.1-0.3-13.6c-0.1-3.6-0.2-7.2-1-10.8c-0.7-3.1-1-6.2-1.5-9.3c-0.2-1.2-0.3-2.4-0.7-3.5c-0.6-2-1.3-4-1.9-6
	c-0.5-1.5-0.7-3.1-1.2-4.6c-0.8-2.3-1.7-4.6-2.6-7c-0.3-0.7-0.8-1.4-1.1-2.2c-1.1-2.5-2.1-5-3.3-7.5c-0.8-1.7-1.9-3.2-2.8-4.9
	c-1.5-2.7-3-5.5-4.5-8.2c-0.8-1.3-1.7-2.5-2.5-3.8c-1.9-2.8-3.7-5.7-5.6-8.4c-1.7-2.3-3.5-4.5-5.2-6.8c-1.3-1.6-2.5-3.2-3.8-4.8
	c-0.7-0.8-1.5-1.5-2.2-2.2c-1.2-1.4-2.3-2.9-3.6-4.2c-2.9-2.8-6-5.4-9.1-8c-1.2-1.1-2.4-2.2-3.7-3.1c-2.3-1.5-4.7-2.7-7-4.1
	c-0.8-0.4-1.6-0.9-2.4-1.3c-0.9-0.5-1.6-1.3-2.6-1.6c-3.4-1.1-6.7-2.4-10.1-3.2c-3.3-0.8-6.5-0.8-9.8-1.2c-2.2-0.2-4.4,0.2-6.7,0.4
	c-3,0.2-5.8,1-8.7,1.8c-2.5,0.8-5,1.6-7.3,3c-0.3,0.2-0.5,0.5-0.7,0.7c0.4,0.2,0.7,0.4,1.1,0.5c2.6,0.5,5.3,0.8,7.8,1.5
	c2.3,0.6,4.6,1.4,6.8,2.3c1.4,0.6,2.7,1.3,4,2.1c1.8,1.1,3.6,2.3,5.3,3.6c0.9,0.7,1.6,1.6,2.4,2.5c1.4,1.5,2.8,2.9,4,4.5
	c1.2,1.7,2.2,3.5,3.2,5.3c0.5,0.8,0.9,1.6,1.4,2.4s1.1,1.4,1.5,2.2c1.6,2.8,3,5.7,5.3,8c1.8,1.8,3.4,3.6,5.7,4.8
	c2.7,1.4,5.6,1.7,8.5,2.1c2,0.3,4.1-0.3,6.2-0.6c2-0.3,4-0.6,5.9-1.3c3.2-1.2,6-0.7,8.6,1.5c2.8,2.4,4.8,5.5,6.9,8.5
	c1.3,1.9,2.4,4,3.6,6c0.7,1.2,1.6,2.4,2.2,3.7c0.6,1.1,0.9,2.4,1.3,3.5c0.9,2.2,1.8,4.4,2.7,6.7c0.5,1.4,1,2.8,1.5,4.2
	c0.5,1.3,1.1,2.6,1.5,3.9c0.5,1.8,0.9,3.6,1.4,5.4c0.5,2.1,1.1,4.2,1.5,6.3c0.5,2.6,0.8,5.2,1.2,7.8c0,0.2,0.1,0.3,0.1,0.5
	c0.6,1.8,0.9,3.6,1,5.6c0.2,3.7,0.7,7.4,0.9,11c0.3,7.5-0.1,15.1-1,22.5c0,0.2,0,0.4-0.1,0.6c-0.7,2.8-1.3,5.5-2,8.3
	c-0.4,1.7-0.6,3.5-1.2,5.2c-0.8,2.4-1.7,4.8-2.6,7.2c-0.3,0.8-0.8,1.5-1.1,2.3c-1,2.1-1.8,4.3-2.9,6.3c-1.4,2.6-2.8,5.1-4.5,7.5
	c-1.6,2.3-3.5,4.5-5.5,6.5c-1.9,2-4,3.8-6.1,5.5c-1.7,1.4-3.6,2.5-5.4,3.7c-1.3,0.8-2.7,1.7-4.1,2.3c-3.2,1.2-6.4,2.4-9.6,3.3
	c-2.3,0.7-4.6,1.3-7,1.4c-10,0.4-20.1,0.6-30-1.4c-1.4-0.3-2.8-0.3-4.1-0.6c-2.2-0.5-4.3-1.2-6.5-1.6c-3-0.6-5.8-1.5-8.7-2.5
	c-1.6-0.6-3.3-1.1-4.9-1.6c-2.3-0.8-4.7-1.4-7-2.3c-1.4-0.5-2.8-0.8-4.1-1.7c-1.1-0.8-2.7-0.8-4-1.3c-2.2-0.8-4.4-1.7-6.5-2.6
	c-2.4-1-4.9-1.9-7.3-2.9c-1-0.4-2-0.9-3.1-1.2c-2.3-0.8-4.7-1.4-7-2.2c-2.4-0.8-4.7-1.8-7.1-2.5c-2.3-0.7-4.6-1.3-6.9-1.9
	c-1.9-0.5-3.7-1-5.6-1.4c-2.8-0.5-5.5-0.9-8.3-1.4c-1-0.2-1.9-0.6-2.9-0.7c-2.6-0.2-5.2-0.5-7.9-0.5c-4.9,0-9.8,0.3-14.7,0.5
	c-0.2,0-0.4,0.1-0.7,0.2c-0.9,0.3-1.9,0.6-2.8,0.9c-2.7,0.7-5.5,1.2-8.1,2.2c-2.4,0.9-4.7,2.4-6.9,3.7c-2.9,1.8-5.9,3.4-8.1,6.1
	c-1.6,2-4,3.4-5.3,5.8c-1.4,2.5-3,4.9-4.5,7.4c-1,1.7-1.5,3.6-2.1,5.5c-0.9,3-1.4,5.9-1.6,9c-0.2,3.4,0.1,6.8,0.7,10.2
	c0.6,3.2,1.4,6.2,2.6,9.2c0.6,1.5,1.8,2.9,2.4,4.4c1.3,3.2,3.4,5.8,5.6,8.4c2,2.5,4,5,6.6,6.9c2.3,1.7,4.4,3.6,6.8,5.1
	c2.6,1.7,5.4,3.2,8.2,4.7c1.8,0.9,3.6,1.7,5.4,2.5c1,0.4,2.1,0.7,3.1,1.1c1.3,0.5,2.6,1.1,3.9,1.5c2.8,0.9,5.6,1.7,8.5,2.4
	c3.3,0.8,6.7,1.6,10.1,2.2c1.5,0.3,3.1,0.4,4.6,0.6c3.8,0.6,7.7,1.2,11.5,1.7c3.1,0.4,6.1-0.1,9.2,0.7c2.1,0.6,4.5,0.5,6.8,0.5
	c4.2,0.1,8.5,0,12.7,0c0.4,0,0.9,0,1.3-0.1c1.9-0.3,3.8-0.9,5.8-0.9c5.3-0.1,10.5-0.9,15.7-2c3.4-0.7,6.8-1.3,10.2-2.1
	c0.4-0.1,1.1-0.6,1.1-0.9c0.1-1.2,0.2-2.5-0.1-3.7c-0.5-2.2-1.3-4.4-2-6.5c-0.9-3-2.6-5.4-5.5-6.7c-1.2-0.5-2.5-1-3.7-1
	c-3.1-0.1-6.2-0.4-9.2,0.8c-2.1,0.9-4.3,1.3-6.4,1.9c-1.5,0.4-3.1,0.8-4.6,1.2c-1.3,0.3-2.5,0.7-3.7,1.1c-1.2,0.3-2.3,0.7-3.5,1
	c-2.1,0.5-3.9-0.5-5.8-1.3c-0.4-0.2-0.5-0.7-0.8-1.1c0.4-0.2,0.8-0.5,1.2-0.6c1.5-0.5,3.1-0.8,4.6-1.4c1.5-0.7,2.9-1.7,4.2-2.7
	c2-1.6,4.1-3.1,5.8-5c2.1-2.4,3.9-5.1,5.6-7.9c1.2-2,2-4.3,3.1-6.5c1.4-2.8,1.6-5.9,2.2-8.8c0.2-1,0.6-1.9,0.6-2.8
	c0-1-0.3-2.1-0.6-3.1c-0.5-2.2-0.8-4.4-1.6-6.5c-1.2-3.3-3.8-5.7-6.3-8c-2-1.9-4.6-2.4-7.1-3.2c-1.7-0.5-3.4-0.8-5-1.5
	c-1.7-0.9-3.4-0.7-5-0.4c-2.7,0.4-5.4,1.2-8,1.9c-0.9,0.2-1.9,0.6-2.8,0.9c-2.7,0.8-5.1,2.1-7.4,3.7
	C167.9,266.2,166.9,266.8,166,267.4z M171.1,234.3c0.4,0.3,0.6,0.5,0.8,0.5c1.4,0.5,2.8,1.1,4.3,1.6s3,1,4.5,1.5
	c2.4,0.8,4.8,1.5,7.2,2.4c1.3,0.5,2.6,1.2,3.9,1.7c2.3,0.9,4.7,1.7,7,2.5c1.4,0.5,2.9,1,4.3,1.5c1,0.4,2,0.8,2.9,1.2
	c1.5,0.6,3,1.2,4.4,1.8c0.8,0.3,1.6,0.6,2.4,0.9c1.4,0.4,2.8,0.8,4.2,1.3c2.2,0.8,4.3,1.7,6.5,2.4c3.1,0.9,6.2,1.7,9.3,2.5
	c3.3,0.8,6.5,1.6,9.8,2.3c1.4,0.3,2.8,0.4,4.1,0.6c1.7,0.3,3.5,0.8,5.2,1c2,0.3,4,0.3,6.1,0.5s2,0.2,2.9-1.7
	c0.1-0.2,0.3-0.3,0.4-0.4c0.1,0,0.3,0.2,0.5,0.3c0.3,0.3,0.6,0.6,0.8,0.8c0.3-0.4,0.8-0.6,1-1.1c0.6-1.3,1.2-2.6,1.8-3.9
	c0.5-1,1.1-1.9,1.4-2.9c0.9-2.8,1.7-5.7,2.5-8.5c0.4-1.4,0.5-2.8,0.7-4.2s0.6-2.7,0.6-4.1c0.1-2.3,0-4.6,0-6.9
	c0-0.4,0.1-0.9,0.2-1.3c0.5,0.2,0.7,0.5,0.8,0.8c0.6,1.5,1.2,3.1,1.7,4.6c0.1,0.1,0.1,0.3,0.2,0.4c0.2,0.2,0.5,0.4,0.7,0.5
	c0.1,0,0.4-0.3,0.5-0.6c0.4-0.9,1-1.8,1.2-2.8c0.6-2.9,1.2-5.8,1.6-8.7c0.5-4-0.6-8-0.9-12c-0.2-1.7-0.6-3.4-1-5
	c-0.4-1.5-1.1-2.9-1.6-4.5c-0.3-0.8-0.3-1.8-0.5-2.9c0.5,0.2,0.9,0.3,1.2,0.5c0.9,0.7,1,0.2,1-0.5c0-0.3-0.1-0.7-0.2-1
	c-0.2-0.8-0.5-1.5-0.7-2.3c-0.5-1.7-0.8-3.5-1.4-5.1c-0.5-1.5-1.2-2.9-1.7-4.3c-0.8-2-1.3-4.1-2.2-6c-1.3-2.8-2.7-5.5-4.2-8.1
	c-1.7-2.9-3.3-5.9-5.5-8.5s-4-5.5-6.5-7.7c-0.7-0.6-1.2-0.7-1.8,0.2c-1.2,2.1-2.5,4.1-3.8,6.2c-0.8,1.3-1.4,2.8-2.3,4.1
	c-1.3,2.1-2.7,4.1-4.2,6.1c-1.8,2.4-3.6,4.8-5.5,7.2c-2,2.5-4,5.1-6.1,7.5c-2.6,3.1-5.2,6.2-8,9.1c-2.7,2.9-5.7,5.5-8.5,8.3
	c-1.3,1.3-2.6,2.6-4,3.8c-3.2,2.7-6.4,5.3-9.6,7.9c-1.9,1.5-3.8,3-5.8,4.4c-2.8,2.1-5.6,4.3-8.4,6.4c-2.6,1.9-5.1,3.7-7.8,5.5
	C175.4,231.5,173.3,232.8,171.1,234.3z M197.3,89.6c0,0.1,0,0.2-0.1,0.3c-2.3-0.2-4.3,0.4-6,2.1c-1.4,1.4-2,2.9-2,4.8
	c0,1.1,0.4,2.1,1.7,2.5c0.8,0.2,1.6,0.5,2.5,0.8c1.3,0.4,2.6,0.7,3.9,1.2c2.5,0.9,4.7,2.1,6.7,3.8c0.2,0.2,0.3,0.4,0.5,0.7
	c-0.3,0.1-0.6,0.3-0.8,0.3c-2.5,0-5,0-7.6,0.1c-1.1,0-2-0.5-2.6-1.4c-0.4-0.6-0.8-1.3-1.4-1.8c-2.3-2-4.6-4-7-5.9
	c-1.2-0.9-2.5-1.6-3.8-2.3c-2.9-1.3-5.7-2.8-8.7-3.6c-3.1-0.8-6.3-1.5-9.6-0.6c-2.2,0.6-4.4,1.2-6.2,2.7c-1.4,1.2-2.9,2.3-3.4,4.3
	c-0.3,1.4-1.3,2.7-1.4,4.1c-0.1,1.8-0.2,3.7,0.4,5.6c0.6,1.8,1.1,3.6,2,5.4c1.7,3.2,4.1,5.5,7.4,6.8c0.8,0.3,1.2,0,1.5-0.7
	c0.8-1.7,1.4-3.5,2.3-5.2c1.2-2.2,4-3.7,6.3-3.1c1.9,0.5,3.8,1.1,5.5,2.1c2.1,1.2,4,2.7,5.9,4.3c2.6,2,5.1,4.2,7.6,6.3
	c1,0.8,2.2,1.6,3.4,2.1c0.9,0.4,1.3,0.8,1.3,1.8c0,1.7-1.1,2.6-2.2,3.6c-2.5,2.1-5.2,3.8-8.7,3.8c-1.7,0-3.4,0-5,0
	c-0.9,0-1.7-0.2-2.4-0.9c-0.4-0.3-1.2-0.1-1.9-0.2c0.1,0.5,0,1.3,0.4,1.6c1.8,1.8,3.6,3.8,5.7,5.2c1.9,1.4,4.1,2.3,6.3,3.2
	c3.1,1.3,6.3,2.3,9.7,1.6c0.2,0,0.7,0.1,0.7,0.2c0.8,1.6,1.7,3.3,2.3,5s0.8,3.5,1.1,5.3c0.6,2.8,1.2,5.6,1.7,8.4
	c0.4,2.7,0.8,5.4,1,8.2c0.3,3.8,0.5,7.6,0.5,11.5c0,3.3-0.2,6.7-0.4,10c-0.1,2.8,0.2,5.6-0.9,8.3c-0.1,0.2,0.1,0.6,0.2,0.9
	c0.3-0.1,0.6-0.1,0.8-0.3c1.3-1.1,2.6-2.1,3.8-3.2c1.7-1.5,3.4-2.9,5-4.5c1.8-1.9,3.6-3.9,5.3-5.8c2-2.3,4-4.5,6-6.8
	c2-2.4,4-4.9,5.9-7.4c2.4-3.2,4.7-6.4,7.1-9.7c0.5-0.7,0.9-1.5,1.4-2.2c1.1-1.7,2.4-3.4,3.4-5.2c1-1.7,1.9-3.5,2.7-5.3
	c0.5-1,0.9-2.1,1.2-3.2c0.3-1.2,0-2.3-0.7-3.5c-1.2-2-2.1-4.1-3.2-6.2c-0.9-1.5-2-2.9-2.9-4.4c-1.7-2.9-3.3-5.8-4.9-8.7
	c-0.9-1.7-1.9-3.3-2.9-5c-0.5-0.8-0.2-1.5,0.6-1.9c3.2-1.5,5.4-4.1,7.1-7c0.9-1.5,1.3-3.2,2.2-4.7s1.1-3.2,0.8-4.8
	c-0.1-0.8-0.6-1.6-1.1-2.3c-0.1-0.1-0.8-0.1-0.9,0c-1.9,2.5-4.8,2.7-7.6,3.1c-1.4,0.2-2.9-0.3-4.3-0.5c-3.9-0.5-7.6-1.7-11.1-3.2
	c-3.3-1.4-6.4-3.6-9.5-5.4c-1.8-1.1-3.5-2.5-5.5-3.4C201.1,90.3,199.1,90.1,197.3,89.6z M124.6,197.2c0,0.2,0,0.5,0,0.7
	c-0.3,3.9,0.2,7.7,1.2,11.4c0.7,2.5,1.2,5.1,2.8,7.3c1.4,2,2.3,4.4,3.4,6.6c1.3,2.6,3.7,4.3,5.5,6.5c0.2,0.2,0.6,0.3,0.8,0.3
	c4.5-0.1,8.9,0.3,13.3,1c1.5,0.2,3.1,0.4,4.6,0.6c0.9,0.1,1.9,0.3,2.8,0.5c2.2,0.4,4.4,0.7,6.5,1.5c1.3,0.4,2.1,0.2,3-0.7
	c1.8-1.7,3.6-3.3,5.5-4.8c3.2-2.6,6.6-5.1,9.9-7.6c3.5-2.6,7-5.2,10.5-7.8c1.5-1.1,2.9-2.3,4.3-3.5c0.5-0.4,0.5-0.8-0.2-1.2
	c-1.6-1-3.3-2.1-4.9-3.3c-2.7-1.9-5.4-3.9-8.1-5.9c-2.5-1.9-4.9-3.9-7.3-5.8c-2.5-2-5-4.1-7.5-6.2c-2.4-2-4.9-3.9-7.1-6.1
	c-4.4-4.3-8.7-8.8-12.9-13.2c-1.3-1.4-2.6-2-4.4-1.2c-2.8,1.1-5.8,1.7-8.4,3.7c-2.5,1.9-5.4,3.3-7.1,6.2c-0.9,1.5-2.2,2.8-3,4.3
	c-0.7,1.2-0.9,2.6-1.4,3.9c-1.2,3.1-1.9,6.4-1.8,9.7C124.6,195.1,124.6,196.1,124.6,197.2z M104.5,100.6c0.3,3.5,0.4,6.6,0.8,9.6
	c0.3,2.7,0.8,5.4,1.3,8.1c0.3,1.9,0.5,3.8,1.2,5.6c1.1,2.5,1.3,5.2,2.8,7.6c1.2,1.9,2.1,4.1,2.9,6.3c1.1,3,3.2,5.5,4.8,8.1
	c1.3,2.1,2.9,4.2,4.6,6c3,3.2,6.1,6.1,9.2,9.1c0.8,0.8,1.8,1.4,2.5,2.3c0.7,0.9,1,1,1.9,0.2c0.8-0.6,1.7-1.1,2.6-1.6
	c1.5-0.7,3.1-1.3,4.6-2c0.2-0.1,0.4-0.7,0.3-0.9c-0.5-1-1.1-2.1-1.8-3c-0.8-1.3-1.9-2.4-2.6-3.8c-1.6-3.1-3.1-6.4-4.6-9.5
	c-0.4-0.9-0.9-1.8-1.3-2.7c-0.3-0.9-0.6-1.8-0.8-2.7c-0.4-1.2-0.8-2.4-1.1-3.6c-0.5-1.9-0.8-3.9-1.2-5.8c-0.6-3.4-1.5-6.7-1.6-10.1
	c-0.2-5.9-0.8-11.8,0.7-17.6c0.8-3.1,1.2-6.4,2.2-9.5c0.7-2.1,1.8-4.1,2.9-6.1c1.1-2.1,2.1-4.3,3.6-6.2c2.3-3.1,4.7-6.1,7.7-8.5
	c1.5-1.2,3-2.6,4.6-3.7c1.9-1.2,3.9-2.2,5.9-3.2c0.8-0.4,1.7-0.8,2.5-1.3c1.1-0.6,2.2-1.3,3.4-1.7c2.2-0.8,4.4-1.4,6.5-2.1
	c0.4-0.1,0.7-0.7,1-1c-0.4-0.2-0.8-0.6-1.3-0.7c-1.2-0.2-2.4-0.3-3.5-0.5c-0.9-0.2-1.8-0.6-2.7-0.7c-5.3-0.1-10.6,0-15.8,0
	c-0.2,0-0.5,0-0.7,0.1c-1.5,0.3-3,0.7-4.6,1.1c-2.1,0.5-4.2,0.9-6.2,1.4c-1.8,0.4-3.5,1-5.2,1.5c-1.8,0.6-3.7,1.2-5.4,2
	c-1.8,0.8-3.4,1.9-5.1,2.8c-1.9,1-3.8,2-5.7,3c-0.7,0.4-1.4,1.1-1.9,1.8c-0.4,0.5-0.4,1.2-0.7,1.7c-0.4,0.8-1.1,1.6-1.4,2.4
	c-0.8,2.4-1.5,4.9-2.1,7.4c-0.6,2.3-1.4,4.6-1.7,6.9C105.2,91.8,104.9,96.4,104.5,100.6z M112.7,201.3c0-0.1,0-0.2,0-0.2
	c1.2,0,2.5,0,3.7,0c1,0.1,1.3-0.4,1.3-1.3c0.1-2.9,0.2-5.7,0.4-8.6c0.1-1.6,0.5-3.1,0.6-4.7c0-0.5-0.1-1.2-0.5-1.5
	c-0.8-0.6-1.7-0.9-2.5-1.5c-1.3-0.9-2.6-1.8-4-2.7c-1.6-1.1-3.3-2-4.8-3.2c-3.6-3-7.1-6-10.7-9.1c-1.7-1.5-3.4-3-4.9-4.6
	c-2.2-2.3-4.3-4.7-6.4-7c-1.9-2.2-3.8-4.4-5.6-6.7c-1.7-2.1-3.2-4.4-4.8-6.6c-1-1.4-2.1-2.7-3-4.2c-1.1-1.8-2.1-3.7-3.2-5.6
	c-1-1.8-2-3.5-2.9-5.4c-0.7-1.4-1.2-3-1.9-4.5c-0.1-0.2-0.8-0.4-0.8-0.3c-0.5,0.6-1,1.3-1.4,2c-0.7,1.6-1.4,3.3-2,5
	c-1.2,3.1-2.4,6.1-3.4,9.3c-0.7,2.2-1.1,4.5-1.6,6.8c-0.6,2.8-1.4,5.6-1.7,8.5c-0.4,4.1-0.5,8.3-0.6,12.4c0,1,0.1,2.1,0,3.1
	c-0.4,2.3,0.7,3.9,2.3,5.3c1.2,1.1,2.5,2.1,3.8,3.2c1.1,0.9,2,2,3.1,2.8c2.4,1.7,5,3.1,7.3,5c3.5,2.8,7.8,4.2,11.6,6.5
	c1.7,1,3.7,1.6,5.6,2.3c1.2,0.4,2.4,0.7,3.6,1.1c1.6,0.4,3.2,0.8,4.8,1.2c1.9,0.5,3.7,1.1,5.6,1.4c1.7,0.3,3.4,0.4,5.1,0.6
	C107.5,200.6,110.1,200.9,112.7,201.3z M91.9,250.4c0.6-0.5,1.4-0.9,1.8-1.5c2.5-3.6,6-6.2,9.5-8.7c3.9-2.7,8.3-5,12.8-6.6
	c1.6-0.6,3.1-1.1,4.7-1.5c2-0.5,4.1-0.7,6.2-1.1c0.9-0.2,1.3-0.6,0.8-1.5c-0.2-0.3-0.2-0.6-0.3-0.9c-1.5-2.8-2.9-5.6-4.4-8.5
	c-0.5-0.9-1.1-1.7-1.4-2.7c-0.5-1.4-0.8-2.9-1.2-4.3c-0.6-2-1.2-3.9-1.7-5.9c-0.2-0.9-0.5-1.1-1.3-1.1c-2.3,0.1-4.6,0.1-7,0.1
	c-3.2-0.1-6.4-0.3-9.7-0.5c-1.1-0.1-2.2-0.5-3.3-0.7c-2.9-0.5-5.8-0.9-8.7-1.4c-1.9-0.4-3.8-0.9-5.7-1.5c-2.7-0.7-5.3-1.4-7.9-2.3
	c-2.1-0.7-4-1.7-6-2.6c-2.4-1.1-4.9-2-7.2-3.3c-2.4-1.3-4.5-3-6.8-4.5c-0.3-0.2-0.8-0.3-1.1-0.2c-0.2,0.1-0.3,0.7-0.3,1
	c0.4,2.1,0.9,4.2,1.4,6.3c0.3,1.3,0.6,2.5,1,3.8c0.1,0.5,0.5,1,0.7,1.5c0.5,1.6,0.9,3.3,1.4,4.9c0.4,1.3,0.9,2.5,1.4,3.8
	c1.1,2.8,2.2,5.6,3.5,8.3c0.7,1.6,1.6,3,2.5,4.5c1.5,2.6,2.9,5.2,4.6,7.6c1.6,2.4,3.2,4.9,5.4,7c1.4,1.3,2.4,3.1,3.9,4.3
	c2.9,2.4,6,4.6,9.1,6.8C89.3,249.5,90.5,249.8,91.9,250.4z M97.8,79.9c-0.1-0.1-0.2-0.2-0.3-0.3c-0.6,0.4-1.3,0.7-1.8,1.2
	c-2,1.9-3.9,3.8-5.8,5.8c-1.4,1.4-2.8,2.8-4.1,4.3c-0.9,1-1.7,2.1-2.6,3.2c-1.6,1.9-3.2,3.8-4.7,5.7c-1.4,1.7-2.6,3.5-3.9,5.3
	c-1.1,1.5-1.9,3-3.2,4.4c-1.7,1.9-2.1,3.7-0.9,6.1c1,2,1.6,4.3,2.4,6.5c0.3,0.8,0.6,1.5,1,2.3c0.5,1,1.1,2,1.7,3.1
	c1.2,2.4,2.3,4.9,3.6,7.3c0.7,1.3,1.6,2.4,2.4,3.6c1.7,2.8,3.3,5.6,5.2,8.3c2.7,3.8,5.5,7.6,8.3,11.2c2,2.6,4.2,5,6.4,7.4
	c1.3,1.4,2.7,2.7,4,4c2.5,2.4,5,4.9,7.6,7.1c1.9,1.6,4,2.8,6,4.2c1.1,0.8,1.3,0.7,2-0.5c0.9-1.6,1.8-3.3,2.8-4.9
	c2-3,4.4-5.6,7.2-7.9c0.6-0.5,0.6-0.7-0.1-1.2c-1.3-0.9-2.6-1.9-3.8-3c-2.6-2.3-5.1-4.6-7.6-7.1c-1.8-1.8-3.4-3.8-4.9-5.8
	c-1.7-2.2-3.4-4.5-5-6.9c-1.1-1.6-1.9-3.3-2.9-5c-1-1.8-2.1-3.5-2.9-5.3c-0.9-2-1.7-4-2.5-6.1c-1.2-3.3-2.5-6.5-3.6-9.8
	c-0.7-2.2-0.9-4.6-1.5-6.8c-1.1-3.8-1-7.8-1.2-11.7c-0.2-3.1,0.3-6.3,0.5-9.4c0-0.3,0.1-0.5,0.2-0.8C96.5,85.4,97.2,82.6,97.8,79.9z
	 M289.9,331.2c0.2-0.2,0.6-0.4,0.8-0.8c1-2.4,1.4-4.9,1.5-7.5c0-1.3-0.1-2.7-0.5-4c-0.3-1-0.9-1.9-1.5-2.7c-1.4-1.8-3.4-2.2-5.5-2.6
	c-1-0.2-2-0.7-3-0.7c-2.6,0-5.2-0.4-7.9,0.5c-2.4,0.8-5,0.9-7.4,1.7c-2.9,0.9-5.6,2.2-8.4,3.4c-1,0.4-1.9,1-2.9,1.4
	c-1.3,0.6-2.6,1.1-4,1.5c-0.4,0.2-1.1,0.4-1.4,0.2c-0.3-0.3-0.5-1-0.5-1.4c0.2-2.5,0.6-5,0.9-7.6c0.2-1.5,0.4-3,0.6-4.5
	c0.6-3.2,1.2-6.4,1.8-9.6c0.4-1.9,0.7-3.7,1.1-5.6c0.6-2.2,1.3-4.4,1.9-6.7c0.7-2.9,1.3-5.8,1.9-8.7c0.4-1.9-0.1-2.6-2.1-2.7
	c-1.8-0.1-3.7-0.2-5.5-0.5c-4.1-0.6-8.1-1.3-12.2-2c-1.6-0.3-3.1-0.6-4.6-1c-0.9-0.2-1.8-0.5-2.7-0.8c-0.3-0.1-0.5-0.1-0.8-0.2
	c-1.8-0.5-3.6-1.1-5.5-1.6c-3-0.8-6-1.4-9-2.2c-1.1-0.3-1.3,0.2-1,0.9c0.9,2.3,1.8,4.7,2.9,6.9c0.7,1.5,1.7,3,2.7,4.4
	c1.5,2.2,3.3,4.3,4.7,6.6c0.9,1.3,1.1,0.9,1.4-0.2c0-0.1,0.2-0.1,0.4-0.2c0.1,0.3,0.3,0.5,0.3,0.7c0.1,0.7,0,1.4,0.2,2
	c0.5,1.8,1.1,3.5,1.8,5.3c0.3,0.9,0.5,2,1.1,2.7c0.8,1,1.8,1.9,2.9,2.4c0.6,0.3,0.9,0.5,1,1c0.1,0.7,0.1,1.4,0.3,2.1
	c0.4,1.9,0.9,3.8,1.2,5.7c0.3,1.7,0.6,3.5,0.9,5.3c0.2,1.2,0.6,2.4,0.8,3.7c0.3,2.3,0.6,4.5,0.9,6.8c0.2,1.9,0.2,3.7-1.3,5.3
	c-1,1-1.1,2.5-0.5,3.7c0.5,1.1,1.7,1.3,2.9,1.3c1.6,0,3.1,0.1,4.7-0.1c2.1-0.2,4.1-0.7,6.2-1c0.3-0.1,0.6-0.3,0.9-0.4
	c2-1.1,4-2.3,6-3.4c1-0.5,2.1-0.8,3.1-1.1c2.3-0.6,4.6-0.8,6.9-1.2c3.3-0.6,6.5,0.5,9.7,0.3c0.1,0,0.2,0,0.2,0.1
	c1.8,0.6,3.6,1,5.3,1.7C284.4,328.9,287.1,330.1,289.9,331.2z M183.4,127c0-0.1,0.1-0.2,0.1-0.3c-0.3-0.5-0.5-1.2-1-1.5
	c-2.4-1.8-4.7-3.9-7.8-4.6c-1.3-0.3-2.5-0.8-3.8-0.1c-0.7,0.4-1.5,0.8-2.2,1.3c-2.6,2-5,4.2-7.7,6c-1.4,1-3.2,1.4-5.1,0.7
	c-2-0.8-2.8-2.8-4.3-4c-0.3-0.2-0.5-0.5-0.7-0.7c-0.1,0.3-0.4,0.7-0.4,1c0.1,1.9-0.1,3.8,0.9,5.6c1.6,2.8,3.3,4.5,6.5,4.3
	c1.6-0.1,3.1-0.3,4.5-1.4c1.5-1.2,3.3-1.9,5-2.8c2.5-1.4,5-3.1,7.9-3.5c1.7-0.3,3.5-0.1,5.3-0.1C181.5,126.8,182.5,126.9,183.4,127z
	"/>
    <path class="st0" d="M167,268.5c0.9-0.6,1.9-1.1,2.7-1.7c2.3-1.6,4.7-2.9,7.4-3.7c0.9-0.3,1.8-0.7,2.8-0.9c2.7-0.7,5.3-1.5,8-1.9
	c1.6-0.2,3.3-0.5,5,0.4c1.5,0.8,3.3,1,5,1.5c2.5,0.8,5.1,1.3,7.1,3.2c2.5,2.3,5.1,4.7,6.3,8c0.8,2.1,1.1,4.3,1.6,6.5
	c0.2,1,0.6,2.1,0.6,3.1c0,0.9-0.4,1.9-0.6,2.8c-0.6,3-0.8,6-2.2,8.8c-1.1,2.1-1.8,4.5-3.1,6.5c-1.7,2.7-3.5,5.4-5.6,7.9
	c-1.6,1.9-3.8,3.4-5.8,5c-1.3,1-2.7,2-4.2,2.7c-1.4,0.7-3.1,1-4.6,1.4c-0.4,0.1-0.8,0.4-1.2,0.6c0.3,0.4,0.4,1,0.8,1.1
	c1.8,0.8,3.7,1.8,5.8,1.3c1.2-0.3,2.3-0.6,3.5-1s2.5-0.7,3.7-1.1c1.5-0.4,3.1-0.7,4.6-1.2c2.2-0.6,4.4-1,6.4-1.9
	c3-1.3,6.1-0.9,9.2-0.8c1.2,0,2.6,0.5,3.7,1c2.9,1.3,4.5,3.8,5.5,6.7c0.7,2.2,1.5,4.3,2,6.5c0.3,1.2,0.2,2.5,0.1,3.7
	c0,0.3-0.7,0.8-1.1,0.9c-3.4,0.7-6.8,1.4-10.2,2.1c-5.2,1-10.4,1.8-15.7,2c-1.9,0-3.8,0.6-5.8,0.9c-0.4,0.1-0.9,0.1-1.3,0.1
	c-4.2,0-8.5,0-12.7,0c-2.3,0-4.6,0.1-6.8-0.5c-3.1-0.8-6.2-0.3-9.2-0.7c-3.9-0.5-7.7-1.1-11.5-1.7c-1.5-0.2-3.1-0.3-4.6-0.6
	c-3.4-0.7-6.7-1.4-10.1-2.2c-2.8-0.7-5.7-1.5-8.5-2.4c-1.3-0.4-2.6-1-3.9-1.5c-1-0.4-2.1-0.7-3.1-1.1c-1.8-0.8-3.7-1.5-5.4-2.5
	c-2.8-1.5-5.6-3-8.2-4.7c-2.4-1.5-4.5-3.5-6.8-5.1c-2.6-1.9-4.6-4.4-6.6-6.9c-2.1-2.6-4.3-5.2-5.6-8.4c-0.6-1.5-1.8-2.9-2.4-4.4
	c-1.2-3-2-6-2.6-9.2c-0.6-3.4-0.9-6.8-0.7-10.2c0.2-3,0.7-6,1.6-9c0.6-1.9,1.1-3.8,2.1-5.5c1.5-2.5,3.1-4.9,4.5-7.4
	c1.3-2.4,3.7-3.8,5.3-5.8c2.2-2.7,5.2-4.4,8.1-6.1c2.2-1.3,4.5-2.8,6.9-3.7c2.6-1,5.4-1.5,8.1-2.2c0.9-0.3,1.9-0.6,2.8-0.9
	c0.2-0.1,0.4-0.2,0.7-0.2c4.9-0.2,9.8-0.4,14.7-0.5c2.6,0,5.2,0.3,7.9,0.5c1,0.1,1.9,0.5,2.9,0.7c2.8,0.5,5.6,0.9,8.3,1.4
	c1.9,0.4,3.8,0.9,5.6,1.4c2.3,0.6,4.6,1.2,6.9,1.9c2.4,0.8,4.7,1.7,7.1,2.5c2.3,0.8,4.6,1.4,7,2.2c1,0.3,2,0.8,3.1,1.2
	c2.4,1,4.9,1.9,7.3,2.9c2.2,0.9,4.3,1.8,6.5,2.6c1.3,0.5,2.9,0.5,4,1.3c1.3,0.9,2.7,1.2,4.1,1.7c2.3,0.9,4.6,1.5,7,2.3
	c1.6,0.5,3.3,1,4.9,1.6c2.9,1,5.7,1.9,8.7,2.5c2.2,0.4,4.4,1.2,6.5,1.6c1.4,0.3,2.8,0.4,4.1,0.6c9.9,1.9,20,1.8,30,1.4
	c2.3-0.1,4.7-0.7,7-1.4c3.3-1,6.5-2.1,9.6-3.3c1.4-0.6,2.8-1.4,4.1-2.3c1.9-1.2,3.7-2.3,5.4-3.7c2.1-1.7,4.2-3.5,6.1-5.5
	c2-2.1,3.8-4.2,5.5-6.5c1.7-2.4,3.1-4.9,4.5-7.5c1.1-2,2-4.2,2.9-6.3c0.4-0.8,0.8-1.5,1.1-2.3c0.9-2.4,1.9-4.8,2.6-7.2
	c0.5-1.7,0.8-3.5,1.2-5.2c0.6-2.8,1.3-5.5,2-8.3c0-0.2,0-0.4,0.1-0.6c0.9-7.5,1.3-15,1-22.5c-0.2-3.7-0.7-7.4-0.9-11
	c-0.1-1.9-0.4-3.8-1-5.6c0-0.2-0.1-0.3-0.1-0.5c-0.4-2.6-0.7-5.2-1.2-7.8c-0.4-2.1-1-4.2-1.5-6.3c-0.4-1.8-0.8-3.6-1.4-5.4
	c-0.4-1.3-1-2.6-1.5-3.9c-0.5-1.4-1-2.8-1.5-4.2c-0.9-2.2-1.8-4.4-2.7-6.7c-0.5-1.2-0.8-2.4-1.3-3.5c-0.6-1.3-1.5-2.5-2.2-3.7
	c-1.2-2-2.3-4.1-3.6-6c-2.1-3-4.1-6.1-6.9-8.5c-2.6-2.2-5.4-2.7-8.6-1.5c-1.9,0.7-3.9,1-5.9,1.3c-2.1,0.3-4.2,0.9-6.2,0.6
	c-2.9-0.4-5.8-0.7-8.5-2.1c-2.3-1.2-4-3-5.7-4.8c-2.3-2.4-3.7-5.2-5.3-8c-0.4-0.8-1-1.5-1.5-2.2c-0.5-0.8-0.9-1.6-1.4-2.4
	c-1.1-1.8-2-3.7-3.2-5.3c-1.2-1.6-2.7-3-4-4.5c-0.8-0.8-1.5-1.8-2.4-2.5c-1.7-1.3-3.5-2.5-5.3-3.6c-1.3-0.8-2.6-1.6-4-2.1
	c-2.2-0.9-4.5-1.7-6.8-2.3c-2.6-0.6-5.2-1-7.8-1.5c-0.4-0.1-0.7-0.3-1.1-0.5c0.2-0.3,0.4-0.6,0.7-0.7c2.3-1.4,4.7-2.3,7.3-3
	c2.9-0.8,5.7-1.6,8.7-1.8c2.2-0.1,4.5-0.6,6.7-0.4c3.3,0.3,6.5,0.4,9.8,1.2c3.5,0.8,6.8,2.2,10.1,3.2c0.9,0.3,1.7,1,2.6,1.6
	c0.8,0.5,1.6,0.9,2.4,1.3c2.3,1.3,4.7,2.6,7,4.1c1.3,0.9,2.5,2,3.7,3.1c3,2.7,6.1,5.3,9.1,8c1.3,1.3,2.4,2.8,3.6,4.2
	c0.7,0.8,1.6,1.4,2.2,2.2c1.3,1.6,2.5,3.2,3.8,4.8c1.8,2.3,3.6,4.5,5.2,6.8c2,2.8,3.8,5.6,5.6,8.4c0.8,1.3,1.8,2.5,2.5,3.8
	c1.6,2.7,3,5.5,4.5,8.2c0.9,1.6,2,3.2,2.8,4.9c1.2,2.4,2.2,5,3.3,7.5c0.3,0.7,0.8,1.4,1.1,2.2c0.9,2.3,1.8,4.6,2.6,7
	c0.5,1.5,0.7,3.1,1.2,4.6c0.6,2,1.4,4,1.9,6c0.3,1.1,0.5,2.3,0.7,3.5c0.5,3.1,0.9,6.2,1.5,9.3c0.8,3.6,0.9,7.2,1,10.8
	c0.1,4.5,0.3,9.1,0.3,13.6c0,2.9-0.2,5.9-0.6,8.8c-0.4,3.1-1.1,6.2-1.7,9.4c-0.4,1.9-0.7,3.9-1.1,5.8c-0.1,0.6-0.5,1.1-0.7,1.7
	c-0.8,2.8-1.6,5.5-2.5,8.3c-0.6,1.8-1.3,3.6-2.1,5.2c-2.1,4.1-4.4,8.1-6.7,12.1c-0.6,1.1-1.5,2.1-2.4,3.1c-2.2,2.7-4.4,5.4-6.8,7.9
	c-1.7,1.7-3.7,3-5.5,4.6c-2.5,2.3-5.5,3.7-8.5,5.2c-1,0.5-2,1.2-3,1.7c-0.8,0.4-1.6,0.8-2.5,1.1c-1.3,0.4-2.6,0.8-4,1.2
	c-2.1,0.6-4.3,1.1-6.4,1.7c-0.3,0.1-0.6,0.2-0.9,0.2c-2.3,0.3-4.6,0.9-6.9,0.9c-6,0.1-12.1,0.2-18.1-0.1c-3.8-0.2-7.5-1.1-11.3-1.7
	c-2.3-0.4-4.5-0.7-6.8-1.1s-4.5-1-6.7-1.6c-1.1-0.3-2.2-0.4-3.3-0.8c-2.7-0.8-5.5-1.8-8.2-2.5c-2.7-0.8-5.5-1.3-8.3-2.1
	c-1.8-0.5-3.5-1.3-5.3-1.9c-1.2-0.4-2.4-0.7-3.6-1.1c-1.3-0.4-2.5-0.7-3.8-1.1c-2.7-0.9-5.4-1.8-8.1-2.7c-3.3-1.1-6.6-2.2-10-3.1
	c-3.6-1-7.2-1.9-10.8-2.9c-2.8-0.7-5.6-1.5-8.4-2.1c-1.9-0.4-3.8-0.8-5.7-1c-5.1-0.5-10.3-1.4-15.5-1.1c-2.6,0.2-5.2,0.2-7.8,0.8
	c-2,0.5-4.1,0.7-6.2,1.1c-1.5,0.4-2.9,1-4.3,1.5c-1.2,0.5-2.4,1-3.6,1.5c-2.7,1.2-5.2,2.4-7.4,4.4c-1.3,1.2-2.9,2.2-4.1,3.5
	c-2.3,2.4-4.4,5-5.6,8.2c-0.8,1.9-1.1,4-1.7,6c-0.8,2.8-0.2,5.5,0.3,8.3c0.7,3.9,2.3,7.4,4.1,10.9c0.8,1.5,2.2,2.7,3.2,4.2
	c1.8,2.6,4.2,4.4,6.5,6.4c0.4,0.4,0.8,0.9,1.2,1.2c0.2,0.2,0.7,0.3,0.9,0.2c0.2-0.1,0.3-0.6,0.3-0.9c-0.1-4-0.3-8-0.3-12.1
	c0-1,0.6-2,0.9-3c0.4-1.3,0.7-2.7,1.2-3.9c1.1-2.4,2-5,3.5-7.2c1.9-2.8,4-5.4,6.3-7.9c2.5-2.6,5.2-5,7.9-7.4c1.3-1.2,2.6-2.4,4-3.5
	c0.8-0.7,1.8-1.3,2.6-1.9c1.2-0.9,2.4-1.9,3.6-2.8c1.2-0.9,2.3-1.8,3.6-2.4c0.9-0.4,2-0.3,3-0.1c2.4,0.3,4.8,0.8,7.2,1.3
	c3.3,0.7,6.6,1.5,9.9,2.4c2.9,0.7,5.8,1.5,8.6,2.3c0.7,0.2,0.9,0.6,0.3,1c-0.8,0.6-1.7,1-2.5,1.5c-3.1,2.2-6.2,4.5-8.8,7.3
	c-0.5,0.6-0.9,1.4-1.3,2.1C166.8,268.3,166.9,268.4,167,268.5z"/>
    <path class="st0" d="M172.1,235.5c2.3-1.5,4.3-2.8,6.4-4.2c2.6-1.8,5.2-3.6,7.8-5.5c2.8-2.1,5.6-4.2,8.4-6.4
	c1.9-1.5,3.9-2.9,5.8-4.4c3.2-2.6,6.4-5.2,9.6-7.9c1.4-1.2,2.7-2.5,4-3.8c2.9-2.7,5.8-5.4,8.5-8.3c2.8-2.9,5.4-6,8-9.1
	c2.1-2.5,4.1-5,6.1-7.5c1.9-2.4,3.7-4.8,5.5-7.2c1.5-2,2.8-4,4.2-6.1c0.8-1.3,1.5-2.8,2.3-4.1c1.2-2.1,2.5-4.1,3.8-6.2
	c0.5-0.9,1-0.8,1.8-0.2c2.6,2.3,4.4,5.1,6.5,7.7c2.2,2.6,3.8,5.6,5.5,8.5c1.5,2.7,2.9,5.4,4.2,8.1c0.9,1.9,1.5,4,2.2,6
	c0.6,1.5,1.3,2.9,1.7,4.3c0.5,1.7,0.9,3.4,1.4,5.1c0.2,0.8,0.4,1.5,0.7,2.3c0.1,0.3,0.2,0.7,0.2,1c0,0.7-0.1,1.3-1,0.5
	c-0.3-0.2-0.7-0.3-1.2-0.5c0.2,1.1,0.3,2,0.5,2.9c0.5,1.5,1.2,2.9,1.6,4.5c0.5,1.6,0.9,3.3,1,5c0.4,4,1.5,7.9,0.9,12
	c-0.4,2.9-1,5.8-1.6,8.7c-0.2,1-0.8,1.9-1.2,2.8c-0.1,0.2-0.4,0.6-0.5,0.6c-0.3,0-0.5-0.3-0.7-0.5c-0.1-0.1-0.2-0.3-0.2-0.4
	c-0.6-1.5-1.1-3.1-1.7-4.6c-0.1-0.3-0.4-0.5-0.8-0.8c-0.1,0.4-0.2,0.9-0.2,1.3c0,2.3,0.1,4.6,0,6.9c-0.1,1.4-0.4,2.7-0.6,4.1
	c-0.2,1.4-0.3,2.8-0.7,4.2c-0.7,2.9-1.6,5.7-2.5,8.5c-0.3,1-0.9,1.9-1.4,2.9c-0.6,1.3-1.1,2.6-1.8,3.9c-0.2,0.4-0.7,0.7-1,1.1
	c-0.3-0.3-0.5-0.6-0.8-0.8c-0.1-0.1-0.3-0.3-0.5-0.3c-0.1,0-0.3,0.2-0.4,0.4c-0.9,2-0.8,1.9-2.9,1.7c-2-0.2-4.1-0.3-6.1-0.5
	c-1.7-0.2-3.5-0.7-5.2-1c-1.4-0.2-2.8-0.3-4.1-0.6c-3.3-0.7-6.5-1.5-9.8-2.3c-3.1-0.8-6.2-1.6-9.3-2.5c-2.2-0.7-4.3-1.6-6.5-2.4
	c-1.4-0.5-2.8-0.8-4.2-1.3c-0.8-0.3-1.6-0.6-2.4-0.9c-1.5-0.6-3-1.2-4.4-1.8c-1-0.4-1.9-0.8-2.9-1.2c-1.4-0.5-2.9-1-4.3-1.5
	c-2.3-0.8-4.7-1.6-7-2.5c-1.3-0.5-2.5-1.2-3.9-1.7c-2.4-0.8-4.8-1.6-7.2-2.4c-1.5-0.5-3-1-4.5-1.5c-1.4-0.5-2.9-1-4.3-1.6
	C172.7,236,172.5,235.8,172.1,235.5z"/>
    <path class="st0" d="M198.3,90.8c1.8,0.5,3.8,0.7,5.4,1.5c1.9,0.9,3.6,2.3,5.5,3.4c3.1,1.9,6.2,4,9.5,5.4c3.5,1.5,7.2,2.8,11.1,3.2
	c1.4,0.2,2.9,0.7,4.3,0.5c2.8-0.4,5.7-0.6,7.6-3.1c0.1-0.2,0.8-0.2,0.9,0c0.4,0.7,1,1.5,1.1,2.3c0.2,1.6,0.1,3.3-0.8,4.8
	c-0.9,1.5-1.3,3.2-2.2,4.7c-1.8,2.9-3.9,5.5-7.1,7c-0.8,0.4-1.1,1.1-0.6,1.9c1,1.7,1.9,3.3,2.9,5c1.6,2.9,3.2,5.8,4.9,8.7
	c0.9,1.5,2,2.9,2.9,4.4c1.1,2,2,4.2,3.2,6.2c0.7,1.2,1,2.3,0.7,3.5c-0.3,1.1-0.7,2.2-1.2,3.2c-0.9,1.8-1.7,3.6-2.7,5.3
	c-1.1,1.8-2.3,3.5-3.4,5.2c-0.5,0.7-0.9,1.5-1.4,2.2c-2.3,3.2-4.7,6.5-7.1,9.7c-1.9,2.5-3.9,5-5.9,7.4c-1.9,2.3-4,4.6-6,6.8
	c-1.7,2-3.5,4-5.3,5.8c-1.6,1.6-3.3,3-5,4.5c-1.3,1.1-2.5,2.2-3.8,3.2c-0.2,0.2-0.5,0.2-0.8,0.3c-0.1-0.3-0.3-0.6-0.2-0.9
	c1.1-2.7,0.8-5.5,0.9-8.3c0.1-3.3,0.4-6.7,0.4-10c0-3.8-0.3-7.6-0.5-11.5c-0.2-2.7-0.5-5.5-1-8.2c-0.5-2.8-1.1-5.6-1.7-8.4
	c-0.4-1.8-0.6-3.6-1.1-5.3c-0.6-1.7-1.5-3.3-2.3-5c-0.1-0.2-0.5-0.3-0.7-0.2c-3.4,0.7-6.6-0.3-9.7-1.6c-2.2-0.9-4.4-1.9-6.3-3.2
	c-2.1-1.5-3.8-3.4-5.7-5.2c-0.3-0.3-0.3-1.1-0.4-1.6c0.6,0,1.5-0.1,1.9,0.2c0.7,0.7,1.5,0.9,2.4,0.9c1.7,0,3.4,0.1,5,0
	c3.4,0,6.2-1.7,8.7-3.8c1.1-1,2.2-1.9,2.2-3.6c0-1-0.4-1.4-1.3-1.8c-1.2-0.5-2.3-1.3-3.4-2.1c-2.6-2.1-5-4.2-7.6-6.3
	c-1.9-1.5-3.8-3.1-5.9-4.3c-1.7-1-3.6-1.6-5.5-2.1c-2.3-0.6-5.1,0.9-6.3,3.1c-0.9,1.7-1.5,3.4-2.3,5.2c-0.3,0.7-0.7,1-1.5,0.7
	c-3.4-1.3-5.8-3.6-7.4-6.8c-0.9-1.7-1.5-3.5-2-5.4c-0.6-1.9-0.6-3.8-0.4-5.6c0.1-1.4,1-2.7,1.4-4.1c0.5-2,2-3.2,3.4-4.3
	c1.8-1.5,4-2.1,6.2-2.7c3.3-0.9,6.5-0.2,9.6,0.6c3,0.8,5.8,2.3,8.7,3.6c1.3,0.6,2.7,1.4,3.8,2.3c2.4,1.9,4.7,3.9,7,5.9
	c0.6,0.5,1,1.2,1.4,1.8c0.6,0.9,1.5,1.4,2.6,1.4c2.5,0,5,0,7.6-0.1c0.3,0,0.6-0.2,0.8-0.3c-0.2-0.2-0.3-0.5-0.5-0.7
	c-2-1.7-4.3-2.9-6.7-3.8c-1.3-0.4-2.6-0.8-3.9-1.2c-0.8-0.3-1.6-0.6-2.5-0.8c-1.3-0.3-1.7-1.4-1.7-2.5c0-1.8,0.6-3.4,2-4.8
	c1.7-1.7,3.7-2.3,6-2.1C198.3,91,198.3,90.9,198.3,90.8z"/>
    <path class="st0" d="M125.6,198.4c0-1.1,0-2.2,0-3.2c0-3.4,0.6-6.6,1.8-9.7c0.5-1.3,0.7-2.7,1.4-3.9c0.9-1.5,2.1-2.8,3-4.3
	c1.7-2.9,4.6-4.3,7.1-6.2s5.5-2.5,8.4-3.7c1.8-0.7,3.1-0.1,4.4,1.2c4.3,4.5,8.5,8.9,12.9,13.2c2.2,2.2,4.7,4.1,7.1,6.1
	c2.5,2.1,5,4.1,7.5,6.2c2.4,2,4.9,3.9,7.3,5.8c2.7,2,5.4,4,8.1,5.9c1.6,1.1,3.2,2.2,4.9,3.3c0.6,0.4,0.7,0.8,0.2,1.2
	c-1.4,1.2-2.8,2.4-4.3,3.5c-3.5,2.6-7,5.2-10.5,7.8c-3.3,2.5-6.6,5-9.9,7.6c-1.9,1.5-3.7,3.1-5.5,4.8c-0.9,0.9-1.7,1.1-3,0.7
	c-2.1-0.7-4.3-1-6.5-1.5c-0.9-0.2-1.9-0.3-2.8-0.5c-1.5-0.2-3.1-0.3-4.6-0.6c-4.4-0.7-8.8-1.1-13.3-1c-0.3,0-0.7-0.1-0.8-0.3
	c-1.8-2.2-4.2-3.9-5.5-6.5c-1.1-2.2-2-4.6-3.4-6.6c-1.6-2.3-2.1-4.9-2.8-7.3c-1-3.7-1.5-7.5-1.2-11.4
	C125.6,198.9,125.6,198.6,125.6,198.4z"/>
    <path class="st0" d="M105.5,101.8c0.4-4.2,0.7-8.8,1.3-13.3c0.3-2.3,1.1-4.6,1.7-6.9c0.7-2.5,1.3-4.9,2.1-7.4
	c0.3-0.9,0.9-1.6,1.4-2.4c0.3-0.5,0.3-1.2,0.7-1.7c0.5-0.7,1.1-1.4,1.9-1.8c1.9-1.1,3.8-2,5.7-3c1.7-0.9,3.3-2,5.1-2.8
	c1.7-0.8,3.6-1.4,5.4-2c1.7-0.6,3.5-1.1,5.2-1.5c2.1-0.5,4.2-0.9,6.2-1.4c1.5-0.3,3-0.7,4.6-1.1c0.2-0.1,0.5-0.1,0.7-0.1
	c5.3,0,10.6,0,15.8,0c0.9,0,1.8,0.5,2.7,0.7c1.2,0.2,2.4,0.3,3.5,0.5c0.5,0.1,0.8,0.5,1.3,0.7c-0.3,0.3-0.6,0.9-1,1
	c-2.2,0.7-4.4,1.3-6.5,2.1c-1.2,0.4-2.3,1.1-3.4,1.7c-0.8,0.4-1.7,0.8-2.5,1.3c-2,1.1-4,2-5.9,3.2c-1.6,1.1-3.1,2.4-4.6,3.7
	c-3,2.4-5.4,5.4-7.7,8.5c-1.4,1.9-2.5,4.1-3.6,6.2c-1,2-2.2,4-2.9,6.1c-0.9,3.1-1.4,6.3-2.2,9.5c-1.5,5.8-0.9,11.8-0.7,17.6
	c0.1,3.4,1,6.7,1.6,10.1c0.3,1.9,0.7,3.9,1.2,5.8c0.3,1.2,0.7,2.4,1.1,3.6c0.3,0.9,0.5,1.8,0.8,2.7c0.4,0.9,0.9,1.8,1.3,2.7
	c1.5,3.2,3,6.4,4.6,9.5c0.7,1.3,1.7,2.5,2.6,3.8c0.6,1,1.2,2,1.8,3c0.1,0.2-0.1,0.8-0.3,0.9c-1.5,0.7-3.1,1.3-4.6,2
	c-0.9,0.4-1.8,1-2.6,1.6c-0.9,0.7-1.1,0.7-1.9-0.2c-0.7-0.9-1.7-1.5-2.5-2.3c-3.1-3-6.3-6-9.2-9.1c-1.7-1.8-3.2-3.9-4.6-6
	c-1.7-2.7-3.7-5.1-4.8-8.1c-0.8-2.2-1.6-4.4-2.9-6.3c-1.5-2.4-1.7-5.1-2.8-7.6c-0.7-1.7-0.9-3.7-1.2-5.6c-0.5-2.7-1-5.4-1.3-8.1
	C106,108.3,105.8,105.3,105.5,101.8z"/>
    <path class="st0" d="M113.7,202.5c-2.6-0.4-5.3-0.7-7.9-1.1c-1.7-0.2-3.4-0.3-5.1-0.6c-1.9-0.4-3.7-1-5.6-1.4
	c-1.6-0.4-3.2-0.8-4.8-1.2c-1.2-0.3-2.4-0.6-3.6-1.1c-1.9-0.7-3.9-1.3-5.6-2.3c-3.8-2.3-8.1-3.7-11.6-6.5c-2.3-1.8-4.9-3.3-7.3-5
	c-1.1-0.8-2.1-1.9-3.1-2.8c-1.2-1.1-2.5-2.1-3.8-3.2c-1.6-1.4-2.6-3-2.3-5.3c0.2-1,0-2.1,0-3.1c0.2-4.1,0.2-8.3,0.6-12.4
	c0.3-2.9,1.1-5.7,1.7-8.5c0.5-2.3,0.9-4.6,1.6-6.8c1-3.1,2.3-6.2,3.4-9.3c0.6-1.7,1.3-3.4,2-5c0.3-0.7,0.9-1.4,1.4-2
	c0.1-0.1,0.8,0.1,0.8,0.3c0.7,1.5,1.2,3,1.9,4.5c0.9,1.8,1.9,3.6,2.9,5.4c1,1.9,2,3.8,3.2,5.6c0.9,1.4,2,2.8,3,4.2
	c1.6,2.2,3.1,4.4,4.8,6.6c1.8,2.3,3.7,4.5,5.6,6.7c2.1,2.4,4.2,4.8,6.4,7c1.6,1.6,3.2,3.1,4.9,4.6c3.5,3.1,7.1,6.1,10.7,9.1
	c1.5,1.2,3.2,2.2,4.8,3.2c1.3,0.9,2.6,1.8,4,2.7c0.8,0.5,1.8,0.9,2.5,1.5c0.3,0.3,0.5,1,0.5,1.5c-0.1,1.6-0.5,3.1-0.6,4.7
	c-0.2,2.9-0.3,5.7-0.4,8.6c0,1-0.3,1.4-1.3,1.3c-1.2-0.1-2.5,0-3.7,0C113.7,202.3,113.7,202.4,113.7,202.5z"/>
    <path class="st0" d="M92.9,251.5c-1.3-0.6-2.5-0.9-3.5-1.5c-3.1-2.2-6.2-4.4-9.1-6.8c-1.5-1.2-2.5-3-3.9-4.3c-2.2-2-3.7-4.6-5.4-7
	c-1.7-2.5-3.1-5.1-4.6-7.6c-0.9-1.5-1.8-3-2.5-4.5c-1.2-2.7-2.3-5.5-3.5-8.3c-0.5-1.2-1-2.5-1.4-3.8c-0.5-1.6-0.9-3.2-1.4-4.9
	c-0.2-0.5-0.5-1-0.7-1.5c-0.4-1.3-0.7-2.5-1-3.8c-0.5-2.1-1-4.2-1.4-6.3c-0.1-0.3,0.1-1,0.3-1c0.3-0.1,0.8,0,1.1,0.2
	c2.3,1.5,4.4,3.1,6.8,4.5c2.3,1.3,4.8,2.2,7.2,3.3c2,0.9,4,1.9,6,2.6c2.6,0.9,5.3,1.6,7.9,2.3c1.9,0.5,3.8,1.1,5.7,1.5
	c2.9,0.6,5.8,1,8.7,1.4c1.1,0.2,2.2,0.6,3.3,0.7c3.2,0.2,6.4,0.4,9.7,0.5c2.3,0.1,4.6,0,7-0.1c0.8,0,1.1,0.2,1.3,1.1
	c0.4,2,1.1,3.9,1.7,5.9c0.4,1.4,0.7,2.9,1.2,4.3c0.3,0.9,0.9,1.8,1.4,2.7c1.5,2.8,3,5.6,4.4,8.5c0.1,0.3,0.2,0.6,0.3,0.9
	c0.5,0.9,0.1,1.4-0.8,1.5c-2.1,0.4-4.2,0.6-6.2,1.1c-1.6,0.4-3.2,1-4.7,1.5c-4.6,1.6-8.9,3.8-12.8,6.6c-3.5,2.4-7,5.1-9.5,8.7
	C94.3,250.6,93.5,251,92.9,251.5z"/>
    <path class="st0" d="M98.8,81.1c-0.7,2.8-1.3,5.5-2,8.3c-0.1,0.3-0.2,0.5-0.2,0.8c-0.2,3.1-0.7,6.3-0.5,9.4
	c0.2,3.9,0.1,7.9,1.2,11.7c0.6,2.2,0.8,4.6,1.5,6.8c1,3.3,2.3,6.6,3.6,9.8c0.8,2,1.5,4.1,2.5,6.1c0.9,1.8,2,3.6,2.9,5.3
	s1.8,3.4,2.9,5c1.6,2.4,3.2,4.7,5,6.9c1.6,2,3.2,4,4.9,5.8c2.4,2.5,5,4.8,7.6,7.1c1.2,1.1,2.4,2.1,3.8,3c0.7,0.5,0.7,0.6,0.1,1.2
	c-2.7,2.3-5.2,4.9-7.2,7.9c-1,1.6-1.9,3.2-2.8,4.9c-0.7,1.2-0.9,1.2-2,0.5c-2-1.4-4.1-2.6-6-4.2c-2.7-2.2-5.1-4.7-7.6-7.1
	c-1.4-1.3-2.8-2.6-4-4c-2.2-2.4-4.4-4.8-6.4-7.4c-2.9-3.7-5.7-7.4-8.3-11.2c-1.9-2.7-3.4-5.5-5.2-8.3c-0.8-1.2-1.7-2.4-2.4-3.6
	c-1.3-2.4-2.4-4.8-3.6-7.3c-0.5-1-1.1-2-1.7-3.1c-0.4-0.7-0.7-1.5-1-2.3c-0.8-2.2-1.4-4.4-2.4-6.5c-1.2-2.4-0.8-4.2,0.9-6.1
	c1.2-1.3,2.1-2.9,3.2-4.4c1.3-1.8,2.6-3.6,3.9-5.3c1.5-1.9,3.1-3.8,4.7-5.7c0.9-1.1,1.7-2.2,2.6-3.2c1.3-1.5,2.7-2.9,4.1-4.3
	c1.9-1.9,3.8-3.9,5.8-5.8c0.5-0.5,1.2-0.8,1.8-1.2C98.6,80.9,98.7,81,98.8,81.1z"/>
    <path class="st0" d="M290.9,332.4c-2.8-1.1-5.5-2.3-8.3-3.3c-1.7-0.7-3.5-1.1-5.3-1.7c-0.1,0-0.2-0.1-0.2-0.1
	c-3.2,0.1-6.4-0.9-9.7-0.3c-2.3,0.4-4.6,0.6-6.9,1.2c-1.1,0.3-2.1,0.6-3.1,1.1c-2,1.1-4,2.2-6,3.4c-0.3,0.2-0.6,0.4-0.9,0.4
	c-2.1,0.4-4.1,0.8-6.2,1c-1.5,0.2-3.1,0.1-4.7,0.1c-1.2,0-2.4-0.1-2.9-1.3c-0.5-1.2-0.4-2.7,0.5-3.7c1.5-1.6,1.5-3.4,1.3-5.3
	c-0.3-2.3-0.6-4.6-0.9-6.8c-0.2-1.2-0.5-2.4-0.8-3.7c-0.3-1.8-0.5-3.5-0.9-5.3c-0.4-1.9-0.9-3.8-1.2-5.7c-0.1-0.7-0.1-1.4-0.3-2.1
	c-0.1-0.6-0.4-0.7-1-1c-1.1-0.5-2.1-1.4-2.9-2.4c-0.6-0.7-0.8-1.8-1.1-2.7c-0.6-1.7-1.2-3.5-1.8-5.3c-0.2-0.6-0.1-1.3-0.2-2
	c0-0.2-0.2-0.5-0.3-0.7c-0.2,0.1-0.4,0.2-0.4,0.2c-0.3,1.1-0.5,1.6-1.4,0.2c-1.5-2.3-3.2-4.3-4.7-6.6c-1-1.4-1.9-2.8-2.7-4.4
	c-1.1-2.3-2-4.6-2.9-6.9c-0.3-0.7,0-1.2,1-0.9c3,0.8,6,1.5,9,2.2c1.8,0.5,3.6,1,5.5,1.6c0.3,0.1,0.5,0.1,0.8,0.2
	c0.9,0.3,1.8,0.5,2.7,0.8c1.5,0.4,3.1,0.7,4.6,1c4.1,0.7,8.1,1.4,12.2,2c1.8,0.3,3.6,0.4,5.5,0.5c2,0.1,2.6,0.8,2.1,2.7
	c-0.7,2.9-1.2,5.8-1.9,8.7c-0.5,2.2-1.3,4.4-1.9,6.7c-0.5,1.8-0.8,3.7-1.1,5.6c-0.6,3.2-1.2,6.4-1.8,9.6c-0.3,1.5-0.4,3-0.6,4.5
	c-0.3,2.5-0.7,5-0.9,7.6c0,0.5,0.2,1.2,0.5,1.4c0.3,0.2,0.9,0,1.4-0.2c1.3-0.5,2.7-1,4-1.5c1-0.4,1.9-1,2.9-1.4
	c2.8-1.2,5.5-2.5,8.4-3.4c2.4-0.8,5-0.8,7.4-1.7c2.6-0.9,5.2-0.6,7.9-0.5c1,0,2,0.5,3,0.7c2.1,0.4,4.1,0.9,5.5,2.6
	c0.6,0.8,1.2,1.7,1.5,2.7c0.3,1.3,0.5,2.7,0.5,4c-0.1,2.6-0.5,5.1-1.5,7.5C291.5,332,291.1,332.2,290.9,332.4z"/>
    <path class="st0" d="M184.4,128.2c-0.9-0.1-1.8-0.2-2.8-0.3c-1.8,0-3.6-0.2-5.3,0.1c-2.9,0.5-5.3,2.2-7.9,3.5
	c-1.7,0.9-3.5,1.6-5,2.8c-1.4,1.1-2.9,1.4-4.5,1.4c-3.2,0.2-4.9-1.5-6.5-4.3c-1-1.8-0.9-3.7-0.9-5.6c0-0.3,0.3-0.7,0.4-1
	c0.2,0.2,0.5,0.5,0.7,0.7c1.5,1.2,2.3,3.2,4.3,4c1.9,0.8,3.6,0.3,5.1-0.7c2.7-1.8,5.1-4,7.7-6c0.7-0.5,1.4-0.9,2.2-1.3
	c1.3-0.7,2.5-0.2,3.8,0.1c3.1,0.7,5.4,2.8,7.8,4.6c0.5,0.3,0.7,1,1,1.5C184.5,128,184.4,128.1,184.4,128.2z"/>
</svg>
