<?xml version="1.0" encoding="utf-8"?>
<!-- Generator: Adobe Illustrator 25.0.1, SVG Export Plug-In . SVG Version: 6.00 Build 0)  -->
<svg version="1.1" id="Layer_1" xmlns="http://www.w3.org/2000/svg" xmlns:xlink="http://www.w3.org/1999/xlink" x="0px" y="0px"
     viewBox="0 0 253.6 256.9" style="enable-background:new 0 0 253.6 256.9;" xml:space="preserve">
<path d="M185.3,35.5c4.4-4.4,8.7-8.8,13.1-13.1c3.4-3.4,8.4-2.9,10.7,1c0.5,0.8,0.8,1.8,0.9,2.8c2.8,19.5,5.6,38.9,8.4,58.4
	c0.3,1.8,0.5,3.6,0.8,5.4c0.8,5-2.4,8.6-7.4,8.1c-6.5-0.7-12.9-1.7-19.3-2.6c-14.7-2.1-29.3-4.2-44-6.3c-3.1-0.4-5.7-1.4-6.8-4.6
	c-1.1-3.2,0.3-5.6,2.5-7.8c4-3.9,7.9-7.9,12.4-12.4c-5.6-1.5-10.5-3.4-15.7-4.2c-31.5-4.6-56.4,6.3-74.2,32.8
	c-7.6,11.3-10.9,24-10.9,37.6c0,6.1-2.9,8.7-8.9,7.9c-8.2-1.1-16.3-2.3-24.5-3.5c-3.9-0.6-6.1-3.2-6-7.3
	c1.1-29.2,11.6-54.5,32.2-75.4c17.9-18.2,39.8-28.7,65.1-31.9c25-3.1,48.5,1.7,70.4,14.3C184.4,35,184.8,35.2,185.3,35.5z"/>
    <path d="M100.2,198.8c5.6,1.5,10.6,3.4,15.7,4.1c30.8,4.6,55.3-5.9,73.2-31.4c7.9-11.3,11.6-24.2,11.8-38.1c0.1-6.5,3.4-9.2,9.7-8.3
	c7.7,1.2,15.3,2.2,23,3.3c4.6,0.7,6.9,3.1,6.6,7.7c-2,36.6-17.2,66.6-47.6,87.2c-38.1,25.7-78.1,26.9-118.9,5.7
	c-0.7-0.3-1.3-0.7-2-1.1c-0.1,0-0.2-0.1-0.6-0.2c-3,3-6.2,6.2-9.3,9.4c-1.5,1.5-2.9,3-4.4,4.4c-2,1.9-4.4,2.2-7,1.3
	c-2.4-0.9-3.8-2.7-4.1-5.2c-2.9-20.1-5.7-40.2-8.6-60.3c-0.2-1.5-0.5-3-0.6-4.5c-0.4-4.7,2.7-7.9,7.4-7.4c5.4,0.6,10.7,1.4,16.1,2.2
	c15.8,2.3,31.6,4.6,47.5,6.8c3.1,0.4,5.6,1.5,6.7,4.7c1.1,3.2-0.4,5.5-2.5,7.6C108.5,190.6,104.7,194.4,100.2,198.8z"/>
</svg>
