<?xml version="1.0" encoding="utf-8"?>
<!-- Generator: Adobe Illustrator 25.0.1, SVG Export Plug-In . SVG Version: 6.00 Build 0)  -->
<svg version="1.1" id="Layer_1" xmlns="http://www.w3.org/2000/svg" xmlns:xlink="http://www.w3.org/1999/xlink" x="0px" y="0px"
     viewBox="0 0 253.6 256.9" style="enable-background:new 0 0 253.6 256.9;" xml:space="preserve">
<style type="text/css">
	.st0{fill:#FFFFFF;}
</style>
    <path d="M125.3,233.4c-28.6,0-57.3,0-85.9,0c-11.5,0-17.1-5.6-17.1-17c0-57.3,0-114.6,0-171.9c0-11.5,5.6-17.1,17-17.1
	c47.1,0,94.1,0,141.2-0.1c3.3,0,5.8,0.9,8.2,3.3c12.1,12.3,24.3,24.5,36.6,36.6c2.2,2.2,3.2,4.4,3.2,7.5c-0.1,47.4,0,94.9-0.1,142.3
	c0,10.5-5.9,16.3-16.3,16.4C183.1,233.4,154.2,233.4,125.3,233.4z M61.5,223.6c0-1.7,0-3.1,0-4.5c0-22.3,0-44.7,0-67
	c0-11.2,5.7-16.8,16.9-16.8c31.1,0,62.3,0,93.4,0c11.7,0,17.2,5.5,17.2,17.3c0,22.2,0,44.5,0,66.7c0,1.4,0,2.8,0,4.4
	c7.8,0,15,0,22.3,0c5.7,0,7.2-1.5,7.2-7.2c0-46.4,0-92.7-0.1-139.1c0-1.7-0.9-3.7-2.1-4.9c-9.8-10-19.8-19.9-29.7-29.8
	c-0.6-0.6-1.4-1.1-2.5-2.1c0,1.9,0,3.2,0,4.5c0,16.2,0,32.3,0,48.5c0,11.4-5.7,17.1-17.1,17.1c-29.5,0-59,0-88.4,0
	c-11.5,0-17.1-5.5-17.1-17c0-17.4,0-34.7,0-52.1c0-1.4,0-2.8,0-4.6c-7.4,0-14.4,0-21.4,0c-6.9,0-8.1,1.2-8.1,8
	c0,56.8,0,113.6,0,170.5c0,1.1-0.1,2.1,0.1,3.2c0.3,2.9,2,4.7,4.8,4.8C44.9,223.7,53,223.6,61.5,223.6z M71.3,223.4
	c36.3,0,72,0,108.1,0c0-1.4,0-2.6,0-3.7c0-22.3,0-44.7,0-67c0-6.2-1.3-7.5-7.5-7.5c-31,0-62,0-93.1,0c-6.2,0-7.5,1.3-7.5,7.5
	c0,22.3,0,44.7,0,67C71.3,220.9,71.3,222,71.3,223.4z M174.3,37.3c-34.5,0-68.6,0-102.8,0c-0.1,1.3-0.2,2.3-0.2,3.4
	c0,17.7,0,35.4,0,53.1c0,5.7,1.5,7.2,7.2,7.2c29.6,0,59.2,0,88.8,0c5.6,0,7.1-1.6,7.1-7.3c0-17.6,0-35.2,0-52.8
	C174.4,39.8,174.3,38.7,174.3,37.3z"/>
    <path class="st0" d="M61.5,223.6c-8.5,0-16.6,0.1-24.7-0.1c-2.9-0.1-4.5-1.9-4.8-4.8c-0.1-1.1-0.1-2.1-0.1-3.2
	c0-56.8,0-113.6,0-170.5c0-6.8,1.2-8,8.1-8c7,0,14,0,21.4,0c0,1.8,0,3.2,0,4.6c0,17.4,0,34.7,0,52.1c0,11.5,5.6,17,17.1,17
	c29.5,0,59,0,88.4,0c11.4,0,17.1-5.7,17.1-17.1c0-16.2,0-32.3,0-48.5c0-1.3,0-2.6,0-4.5c1.2,1,1.9,1.5,2.5,2.1
	c9.9,9.9,19.9,19.8,29.7,29.8c1.2,1.2,2,3.2,2.1,4.9c0.1,46.4,0.1,92.7,0.1,139.1c0,5.6-1.5,7.1-7.2,7.2c-7.2,0-14.5,0-22.3,0
	c0-1.6,0-3,0-4.4c0-22.2,0-44.5,0-66.7c0-11.8-5.5-17.3-17.2-17.3c-31.1,0-62.3,0-93.4,0c-11.2,0-16.9,5.6-16.9,16.8
	c0,22.3,0,44.7,0,67C61.5,220.6,61.5,222,61.5,223.6z M42,213.5c3.2,0,6.3,0,9.5,0c0-3.3,0-6.3,0-9.3c-3.3,0-6.3,0-9.5,0
	C42,207.3,42,210.3,42,213.5z M199,213.6c3.4,0,6.4,0,9.5,0c0-3.3,0-6.4,0-9.4c-3.3,0-6.3,0-9.5,0C199,207.4,199,210.4,199,213.6z"
    />
    <path class="st0" d="M71.3,223.4c0-1.4,0-2.6,0-3.7c0-22.3,0-44.7,0-67c0-6.2,1.3-7.5,7.5-7.5c31,0,62,0,93.1,0
	c6.2,0,7.5,1.3,7.5,7.5c0,22.3,0,44.7,0,67c0,1.2,0,2.3,0,3.7C143.3,223.4,107.6,223.4,71.3,223.4z"/>
    <path class="st0" d="M174.3,37.3c0.1,1.3,0.2,2.5,0.2,3.6c0,17.6,0,35.2,0,52.8c0,5.7-1.5,7.3-7.1,7.3c-29.6,0-59.2,0-88.8,0
	c-5.7,0-7.2-1.5-7.2-7.2c0-17.7,0-35.4,0-53.1c0-1,0.1-2.1,0.2-3.4C105.7,37.3,139.7,37.3,174.3,37.3z M164.5,68.7
	c0-5.3,0.1-10.7,0-16c0-3.9-1.8-5.6-5.7-5.7c-4.4-0.1-8.8-0.1-13.2,0c-3.7,0.1-5.5,1.8-5.5,5.5c-0.1,11.1-0.1,22.1,0,33.2
	c0,3.7,1.8,5.4,5.5,5.5c4.3,0.1,8.6,0.1,12.8,0c4.3,0,6.1-1.7,6.1-6C164.6,79.6,164.5,74.1,164.5,68.7z"/>
    <path d="M42,213.5c0-3.2,0-6.2,0-9.3c3.2,0,6.2,0,9.5,0c0,3,0,6,0,9.3C48.3,213.5,45.2,213.5,42,213.5z"/>
    <path d="M199,213.6c0-3.3,0-6.2,0-9.4c3.1,0,6.1,0,9.5,0c0,3,0,6.1,0,9.4C205.4,213.6,202.4,213.6,199,213.6z"/>
    <path d="M164.5,68.7c0,5.5,0,10.9,0,16.4c0,4.3-1.8,6-6.1,6c-4.3,0-8.6,0.1-12.8,0c-3.7-0.1-5.5-1.8-5.5-5.5
	c-0.1-11.1-0.1-22.1,0-33.2c0-3.7,1.8-5.4,5.5-5.5c4.4-0.1,8.8-0.1,13.2,0c3.9,0.1,5.7,1.8,5.7,5.7C164.6,58,164.5,63.3,164.5,68.7z
	 M154.5,56.8c-1.7,0.1-3.1,0.1-4.5,0.2c0,8.2,0,16.1,0,24.1c1.6,0,3,0,4.5,0C154.5,73,154.5,65.1,154.5,56.8z"/>
    <path class="st0" d="M154.5,56.8c0,8.3,0,16.2,0,24.3c-1.5,0-2.9,0-4.5,0c0-7.9,0-15.8,0-24.1C151.4,56.9,152.8,56.9,154.5,56.8z"/>
</svg>
