<?xml version="1.0" encoding="utf-8"?>
<!-- Generator: Adobe Illustrator 25.0.0, SVG Export Plug-In . SVG Version: 6.00 Build 0)  -->
<svg version="1.1" id="Layer_1" xmlns="http://www.w3.org/2000/svg" xmlns:xlink="http://www.w3.org/1999/xlink" x="0px" y="0px"
	 viewBox="0 0 170.1 170.1" style="enable-background:new 0 0 170.1 170.1;" xml:space="preserve">
<style type="text/css">
	.st0{opacity:0.79;fill:#666666;enable-background:new    ;}
</style>
<path class="st0" d="M0,0v170h170V0H0z M49.2,60.2c0-3.1,2.8-5.7,6.1-5.7h59.8c3.3,0,6.1,2.6,6.1,5.7v31.3c0,3.1-2.8,5.7-6.1,5.7
	H55.3c-3.3,0-6.1-2.6-6.1-5.7V60.2z M126.1,109.7c-7.3-0.2-73.9,0.7-81.5,0.4c-7.6-0.4,4.7-9.9,4.7-9.9l71.8-0.2
	C121.1,100,133.4,109.8,126.1,109.7z"/>
</svg>
